<?xml version="1.0"?>
<svg xmlns="http://www.w3.org/2000/svg" xmlns:xlink="http://www.w3.org/1999/xlink" xmlns:svgjs="http://svgjs.com/svgjs" version="1.1" width="512" height="512" x="0" y="0" viewBox="0 0 512 512" style="enable-background:new 0 0 512 512" xml:space="preserve" class=""><g><g xmlns="http://www.w3.org/2000/svg"><g><path d="m408.264 25.038c-29.986-29.987-76.893-32.996-110.273-9.022-14.433-10.404-31.71-16.016-49.851-16.016-22.833 0-44.3 8.892-60.446 25.038-33.329 33.33-33.329 87.562 0 120.891l99.678 99.678c2.812 2.813 6.628 4.394 10.606 4.394s7.794-1.581 10.606-4.394l99.678-99.678c16.146-16.146 25.038-37.612 25.038-60.446.002-22.833-8.89-44.3-25.036-60.445z" fill="#ffffff" data-original="#000000" style="" class=""/></g><g><path d="m497.853 330.137-111.564 100.175c-14.704 13.203-33.686 20.474-53.448 20.474h-142.017l-83.288 58.49c-2.525 1.773-5.535 2.725-8.621 2.725h-82.915c-8.284 0-15-6.716-15-15v-107.817c0-4.629 2.137-8.998 5.791-11.84l93-72.333c20.186-15.701 45.03-24.225 70.604-24.225h144.278c20.711 0 37.5 16.789 37.5 37.5 0 20.711-16.789 37.5-37.5 37.5h-70.167c-8.284 0-15 6.716-15 15 0 8.284 6.716 15 15 15h70.167c34.17 0 62.472-25.528 66.883-58.51l63.604-56.263c13.266-11.736 32.912-13.203 47.777-3.568 10.428 6.76 16.966 17.743 17.938 30.133.972 12.388-3.774 24.256-13.022 32.559z" fill="#ffffff" data-original="#000000" style="" class=""/></g></g></g></svg>
