<?xml version="1.0"?>
<svg xmlns="http://www.w3.org/2000/svg" xmlns:xlink="http://www.w3.org/1999/xlink" xmlns:svgjs="http://svgjs.com/svgjs" version="1.1" width="512" height="512" x="0" y="0" viewBox="0 0 512 512" style="enable-background:new 0 0 512 512" xml:space="preserve"><g><g xmlns="http://www.w3.org/2000/svg"><path d="m201.58 159.085c-18.4-17.58-20.15-46.65-3.51-66.32l18.51-21.88-34.83-29.34-107.82 107.83 137.03 136.92z" fill="#ffffff" data-original="#000000" style=""/><path d="m301.51 376.775h208.69c-3.56-18.33-12.25-35.81-24.44-49.8-16.22-18.6-38.63-31.02-63.38-31.02-7.95 0-15.7-1.31-22.98-3.77l-41.02 49.04-23.07-19.17 38.01-45.45c-11.638-10.869-17.297-24.879-23.56-39.08l-59.52 23.49-10.82-27.98 58.21-22.97-26.15-59.26-20.77-17.49-18.66 22.04c-10.14 11.98-24.85 17.81-39.4 17.1l10.79 146.3z" fill="#ffffff" data-original="#000000" style=""/><path d="m289.09 406.775-236.37-236.19-46.15 46.16 253.9 253.71h251.53v-63.68z" fill="#ffffff" data-original="#000000" style=""/><path d="m0 440.455h173.766v30h-173.766z" fill="#ffffff" data-original="#000000" style=""/><path d="m0 380.765h112.49v30h-112.49z" fill="#ffffff" data-original="#000000" style=""/><path d="m0 320.609h60.713v30h-60.713z" fill="#ffffff" data-original="#000000" style=""/></g></g></svg>
