<?xml version="1.0"?>
<svg xmlns="http://www.w3.org/2000/svg" xmlns:xlink="http://www.w3.org/1999/xlink" xmlns:svgjs="http://svgjs.com/svgjs" version="1.1" width="512" height="512" x="0" y="0" viewBox="0 0 512.001 512.001" style="enable-background:new 0 0 512 512" xml:space="preserve" class=""><g>
<g xmlns="http://www.w3.org/2000/svg">
	<g>
		<path d="M237.737,359.117l-84.853-84.853c-17.546-17.546-46.093-17.546-63.639,0c-5.857,5.857-5.857,15.356,0,21.213    l127.279,127.279c5.857,5.858,15.356,5.858,21.213,0C255.284,405.21,255.284,376.663,237.737,359.117z" fill="#ffffff" data-original="#000000" style="" class=""/>
	</g>
</g>
<g xmlns="http://www.w3.org/2000/svg">
	<g>
		
			<rect x="80.466" y="371.548" transform="matrix(0.7071 -0.7071 0.7071 0.7071 -251.5829 195.7215)" width="59.999" height="59.999" fill="#ffffff" data-original="#000000" style="" class=""/>
	</g>
</g>
<g xmlns="http://www.w3.org/2000/svg">
	<g>
		<path d="M89.248,465.187l-42.432-42.432C29.573,405.51,0.006,417.76,0,442.147v24.859c0,12.409,5.044,23.647,13.196,31.799    c8.152,8.152,19.39,13.196,31.799,13.196h24.859C94.233,511.997,106.487,482.425,89.248,465.187z" fill="#ffffff" data-original="#000000" style="" class=""/>
	</g>
</g>
<g xmlns="http://www.w3.org/2000/svg">
	<g>
		<path d="M494.9,0.135L346.408,21.349c-3.719,0.528-7.106,2.444-9.488,5.345L160.255,239.209l45.662,45.662l137.886-137.886    c5.863-5.863,15.351-5.863,21.213,0c5.862,5.863,5.863,15.351,0,21.213L227.13,306.084l45.662,45.662l212.515-176.664    c2.9-2.382,4.816-5.77,5.345-9.488l21.213-148.493C513.213,7.758,504.242-1.212,494.9,0.135z" fill="#ffffff" data-original="#000000" style="" class=""/>
	</g>
</g>
<g xmlns="http://www.w3.org/2000/svg">
</g>
<g xmlns="http://www.w3.org/2000/svg">
</g>
<g xmlns="http://www.w3.org/2000/svg">
</g>
<g xmlns="http://www.w3.org/2000/svg">
</g>
<g xmlns="http://www.w3.org/2000/svg">
</g>
<g xmlns="http://www.w3.org/2000/svg">
</g>
<g xmlns="http://www.w3.org/2000/svg">
</g>
<g xmlns="http://www.w3.org/2000/svg">
</g>
<g xmlns="http://www.w3.org/2000/svg">
</g>
<g xmlns="http://www.w3.org/2000/svg">
</g>
<g xmlns="http://www.w3.org/2000/svg">
</g>
<g xmlns="http://www.w3.org/2000/svg">
</g>
<g xmlns="http://www.w3.org/2000/svg">
</g>
<g xmlns="http://www.w3.org/2000/svg">
</g>
<g xmlns="http://www.w3.org/2000/svg">
</g>
</g></svg>
